<?xml version="1.0" encoding="UTF-8" standalone="no"?>
<svg width="32px" height="32px" viewBox="0 0 32 32" version="1.1" xmlns="http://www.w3.org/2000/svg" xmlns:xlink="http://www.w3.org/1999/xlink" xmlns:sketch="http://www.bohemiancoding.com/sketch/ns">
    <!-- Generator: Sketch 3.3.3 (12081) - http://www.bohemiancoding.com/sketch -->
    <title>favicon</title>
    <desc>Created with Sketch.</desc>
    <defs></defs>
    <g id="Page-1" stroke="none" stroke-width="1" fill="none" fill-rule="evenodd" sketch:type="MSPage">
        <g id="favicon" sketch:type="MSArtboardGroup" fill="#0099CC">
            <g id="Fill-1-Copy-3" sketch:type="MSLayerGroup" transform="translate(0.000000, 8.000000)">
                <path d="M0.516129032,0 L32,0 L32,3.09677419 L0.516129032,3.09677419 L0.516129032,3.06241628 L0.516129032,0 Z M0.516129032,15.4494303 L0.516129032,12.3870968 L32,12.3870968 L32,15.483871 L0.516129032,15.483871 L0.516129032,15.4494303 Z M31.7722811,6.78519111 C31.5934443,6.55038436 31.3217379,6.42120346 31.0071733,6.42120346 C30.4187688,6.42120346 29.9260577,6.7551894 29.3593647,7.53771324 C28.8771955,8.20388749 28.2771196,9.03277761 27.8376831,9.03277761 C27.7322635,9.03277761 27.653889,8.9984988 27.5980417,8.92770965 C27.4626278,8.75631561 27.4636945,8.37720314 27.6016185,7.83122167 C27.7579281,7.21296337 28.057621,6.78122394 28.3306452,6.78122394 C28.5274284,6.78122394 28.5999044,6.89044503 28.6259455,6.95763893 C28.5448101,6.9520601 28.4557682,6.97716483 28.3846099,7.02886199 C28.2906108,7.09735762 28.238905,7.20391327 28.238905,7.32906501 C28.238905,7.44101353 28.2785001,7.54168041 28.3502858,7.61265552 C28.4198126,7.68133711 28.5136862,7.71766149 28.621553,7.71766149 C28.8957067,7.71766149 29.0874072,7.49209081 29.0874072,7.16907657 C29.0874072,6.96365167 29.0094093,6.76888853 28.8738698,6.63487264 C28.7246509,6.4877775 28.5140627,6.41302118 28.2475017,6.41302118 C27.5937748,6.41302118 27.0185477,6.96557326 26.7337893,7.29484819 C26.4140166,7.66478659 26.048311,8.03354723 25.8685957,8.21144991 C26.0426007,7.63930993 26.0046999,7.10467209 25.7590346,6.75928054 C25.6025367,6.53904074 25.3699861,6.41785616 25.1046174,6.41785616 C24.7012619,6.41785616 24.4327557,6.59712256 24.2957102,6.72016675 L24.3631662,6.47178485 L22.985809,6.47178485 L22.9033559,6.80471701 L23.2875726,6.80471701 C23.1090496,7.38144402 22.6203544,7.91292053 22.3873646,8.14245838 C22.4162295,8.05090359 22.4463494,7.92184666 22.4601543,7.75367594 C22.4952314,7.32534579 22.3832231,6.93798905 22.1524295,6.6908469 C21.9855152,6.51220037 21.7702835,6.41785616 21.5298264,6.41785616 C20.8412106,6.41785616 20.2432681,6.83044161 19.7527533,7.6442069 L19.6046638,7.89643199 C19.2872128,8.44408711 18.9588433,9.01027633 18.4262861,9.01027633 C18.2799537,9.01027633 18.1620469,8.95337227 18.075766,8.84080388 C17.8562673,8.55473389 17.8448469,7.91013112 18.0467129,7.19814848 C18.3012886,6.30063875 18.8467723,5.39209535 19.3971504,5.39209535 C19.4900828,5.39209535 19.5666375,5.42730396 19.631458,5.49964278 C19.8426737,5.73531735 19.8537176,6.30076273 19.826296,6.52242823 L19.821025,6.56476535 L20.2223725,6.56476535 L20.6422938,5.05804742 L20.2589556,5.05804742 L20.2475351,5.07348218 L20.090849,5.28560169 C20.0016816,5.18040975 19.7223196,4.9227918 19.1230594,4.9227918 C18.4395891,4.9227918 17.238998,5.64717184 16.8331953,7.20211564 C16.6366003,7.95519566 16.7222537,8.61746473 17.0745309,9.06643655 C17.3259064,9.38690932 17.6965065,9.57057679 18.0917044,9.57057679 C18.7604286,9.57057679 19.356865,9.06817219 19.6102486,8.67275714 C19.6495299,8.94351634 19.8252292,9.57076275 20.6079697,9.57076275 C21.3099513,9.57076275 22.1307181,9.04554693 22.987817,8.05040769 L22.3246148,10.6166693 L23.316814,10.6166693 L23.643552,9.2940528 C23.7255032,9.39850089 23.9165762,9.57076275 24.2911922,9.57076275 C24.821114,9.57076275 25.7013676,8.97054267 26.4639026,8.09782774 C26.3588595,8.53334838 26.418911,8.92560209 26.6360252,9.21006042 C26.8107205,9.43873045 27.0695633,9.56970898 27.3464152,9.56970898 C28.2668287,9.56970898 28.9110177,8.80937648 29.1285711,8.51047518 C29.1241786,8.78761904 29.2150402,9.04889423 29.3874138,9.24309949 C29.5744081,9.45385528 29.8444203,9.56970898 30.1476899,9.56970898 C30.9547145,9.56970898 31.6591433,9.01411953 31.9003534,8.18739895 C32.0683972,7.61209764 32.0227154,7.11421808 31.7722811,6.78519111 Z M21.6725194,8.06733014 C21.5389251,8.58145029 21.2368478,9.18185634 20.8257114,9.18185634 C20.7317122,9.18185634 20.6628758,9.15160668 20.6155624,9.08961969 C20.4859842,8.91996128 20.5133431,8.51115704 20.6970744,7.87411667 C20.9038348,7.15711308 21.1507551,6.8085602 21.4521422,6.8085602 C21.5287597,6.8085602 21.5898152,6.83905781 21.6391992,6.90178865 C21.7879162,7.09134488 21.8015956,7.57069032 21.6725194,8.06733014 L21.6725194,8.06733014 Z M24.8908289,8.08450054 C24.7322603,8.75284434 24.4616206,9.13617192 24.1485621,9.13617192 C23.9040262,9.13617192 23.7930847,8.90874163 23.771436,8.85816024 C23.7941514,8.76177046 23.9540378,8.08251695 24.0342947,7.76923467 C24.1592295,7.28040522 24.4459959,6.91183054 24.7008854,6.91183054 C24.7780049,6.91183054 24.8408801,6.94115039 24.8870012,6.99892227 C24.9791178,7.11359821 25.0544803,7.39495719 24.8908289,8.08450054 L24.8908289,8.08450054 Z M31.2254797,8.06733014 C31.0918227,8.58145029 30.7899337,9.18185634 30.3786718,9.18185634 C30.2847981,9.18185634 30.2160244,9.15160668 30.1684601,9.08961969 C30.0389446,8.91996128 30.0663662,8.51115704 30.2500975,7.87411667 C30.4568579,7.15711308 30.7037155,6.8085602 31.0052908,6.8085602 C31.08172,6.8085602 31.1427756,6.83905781 31.1922851,6.90178865 C31.341002,7.09134488 31.3546815,7.57069032 31.2254797,8.06733014 Z M15.2903888,7.44519196 C15.3587921,7.51296091 15.4499755,7.54871401 15.5543376,7.54871401 C15.7426034,7.54871401 15.9438596,7.43142639 15.9438596,7.10198708 C15.9438596,6.93823288 15.8821712,6.7904866 15.7653209,6.6746316 C15.595254,6.50558295 15.3191935,6.41258751 14.9879711,6.41258751 C14.3248987,6.41258751 13.8655928,6.6811718 13.6948984,7.16863485 C13.5680072,7.53089975 13.7628623,7.91751911 14.2433796,8.25742275 L14.3088334,8.30364018 C14.5881571,8.49947251 14.7565923,8.61769445 14.7140443,8.86902506 C14.6800936,9.06871923 14.4626466,9.21204308 14.1965641,9.20973844 C13.7894078,9.20600118 13.7221969,8.99640328 13.7112147,8.92421191 C13.7833833,8.89188462 13.9660012,8.78798885 13.9660012,8.56182243 C13.9660012,8.45437626 13.9328664,8.36679984 13.8672244,8.30170926 C13.7665022,8.20186218 13.6261813,8.19108642 13.5704546,8.19108642 C13.4396099,8.19108642 13.2146321,8.23693012 13.1781713,8.5453785 C13.1729626,8.58916671 13.1777948,8.63837394 13.180807,8.66254154 C13.150308,8.70664119 13.0219734,8.87481781 12.8126218,8.94065584 C12.764865,8.95579174 12.6947673,8.94981213 12.6454417,8.90253581 C12.5790466,8.83862869 12.5669976,8.71673179 12.6114911,8.5589572 C12.6567376,8.3992517 13.1395141,6.46029984 13.1395141,6.46029984 L12.1588372,6.46029984 L12.0843466,6.7255206 C12.0087893,6.60412199 11.8215275,6.41258751 11.3917165,6.41258751 C10.7320957,6.41258751 10.1757073,7.05296671 9.89939576,7.6011602 C9.66751497,8.06190186 9.2353193,8.9192289 8.90026881,8.9192289 C8.86443554,8.9192289 8.83738801,8.90708281 8.81799663,8.88204318 C8.78197509,8.83545203 8.7376071,8.69785863 8.84523242,8.29940462 C8.93334085,7.97258138 9.63488222,5.11600805 9.63488222,5.11600805 L7.96132418,5.11600805 L7.87101932,5.50729898 L8.49957629,5.50729898 L8.06606276,7.23023732 C7.74626181,8.47692438 7.187928,8.9192289 6.80687789,8.9192289 C6.72711592,8.9192289 6.6705734,8.89736594 6.6343636,8.85239426 C6.53213524,8.72570121 6.60009922,8.42535022 6.64961314,8.20584859 C6.71902049,7.89939341 6.93973084,7.016217 6.98071004,6.85202679 L7.67396771,6.85202679 L7.77494097,6.45369735 L7.08582515,6.45369735 L7.32460902,5.48512459 L6.94832831,5.48500001 L6.93690685,5.50194225 C6.44195589,6.23973931 6.21980217,6.47830096 5.47960354,6.47830096 L5.44966926,6.47830096 L5.35735623,6.85152849 L5.95014269,6.85152849 C5.92428751,6.97423513 5.85550772,7.30224183 5.85588425,7.30068464 C5.52874093,8.52488587 4.90319621,9.0330907 4.64075359,9.0330907 C4.51185423,9.0330907 4.44018769,9.01160146 4.40109115,8.96127305 C4.33639044,8.87780762 4.34479965,8.69430824 4.42744837,8.38336835 C4.57711973,7.82190759 5.21082264,5.57388447 5.28725858,5.3026841 L5.91901607,5.3026841 L6.03454855,4.92596846 L4.68819659,4.9227918 C4.2041023,4.9227918 3.63415876,4.96340333 3.07664078,5.26443949 C2.37924126,5.6412174 1.87493976,6.34706091 1.57729142,7.36353287 C1.57540877,7.37075823 1.39128475,8.09080332 1.22730518,8.62653929 C1.05410058,9.19173731 0.597179327,9.2527792 0.40866244,9.2527792 C0.291498316,9.2527792 0.166113249,9.19615973 0.0652027449,9.09749612 L0,9.03414959 L0,9.54254128 L0.0293694751,9.54939293 C0.20445673,9.59106335 0.41305531,9.61186743 0.649266216,9.61186743 C1.29690079,9.61186743 1.87199026,9.1474508 2.16744216,8.74930822 C2.40835971,8.42535022 2.48805893,8.13639787 2.60842357,7.69876493 L2.63503181,7.60172079 L3.60899389,7.60172079 C3.5675754,7.74006163 3.44520259,8.15203207 3.33820482,8.54270013 C3.24664486,8.87730932 3.27017809,9.1378585 3.40830248,9.31699775 C3.54423044,9.49345863 3.788223,9.58290367 4.13375362,9.58290367 C4.48380262,9.58290367 5.11618766,9.49769419 5.5456221,8.95267736 C5.55603948,9.08566146 5.5972697,9.2588211 5.72604356,9.39112004 C5.84873014,9.51694107 6.02708067,9.58078589 6.25607472,9.58078589 C6.78786304,9.58078589 7.38918421,9.23508951 7.68118457,8.8824169 C7.68783663,9.0164599 7.72272857,9.23739415 7.86932493,9.39622762 C7.98247271,9.51868512 8.14042777,9.58078589 8.33898551,9.58078589 C8.93246227,9.58078589 9.4762996,9.10933077 9.72374371,8.7262618 C9.7664173,8.98126738 9.94206936,9.58078589 10.6567893,9.58078589 C11.1140871,9.58078589 11.4522754,9.29426276 11.6377173,9.08622205 C11.6768766,9.24449494 11.8081606,9.58078589 12.2229731,9.58078589 C12.6606912,9.58078589 13.0985976,9.28965348 13.2997911,9.06224131 C13.486237,9.42039523 13.6962162,9.58078589 14.4094301,9.58078589 C15.0859321,9.58078589 15.6452072,9.12309633 15.7430427,8.69586543 C15.8489109,8.23306828 15.5921163,8.04533335 15.1666354,7.73401973 L15.1151133,7.69627343 L15.0271931,7.63311376 C14.8171512,7.48281369 14.6354119,7.35319312 14.6354119,7.13051481 C14.6354119,6.88871421 14.8330283,6.78052058 15.0288248,6.78052058 C15.1909845,6.78052058 15.2800342,6.8439294 15.3181894,6.88036766 C15.2696796,6.92608679 15.182889,7.02823851 15.182889,7.17610937 C15.182889,7.2807526 15.2210442,7.37636412 15.2903888,7.44519196 Z M3.72088657,7.19498252 L2.73550303,7.19498252 C3.117871,5.90656274 3.57341164,5.33762746 4.24539528,5.31028319 L3.72088657,7.19498252 L3.72088657,7.19498252 Z M11.771637,7.89939341 C11.5779742,8.63762649 11.3475368,8.96675436 11.0247864,8.96675436 C10.9529315,8.96675436 10.8964518,8.93866264 10.8517073,8.88079743 C10.7111982,8.69785863 10.7164696,8.24857791 10.86589,7.70904239 C11.0749906,6.95305734 11.3397551,6.85109247 11.5712594,6.85109247 C11.6417963,6.85109247 11.7016649,6.88198714 11.7490451,6.94277988 C11.8791368,7.10989761 11.8874833,7.4585838 11.771637,7.89939341 L11.771637,7.89939341 Z" id="Fill-1-Copy" sketch:type="MSShapeGroup"></path>
            </g>
        </g>
    </g>
</svg>